<?xml version="1.0" encoding="utf-8"?>
<!-- Generator: Adobe Illustrator 27.5.0, SVG Export Plug-In . SVG Version: 6.00 Build 0)  -->
<svg version="1.1" id="Layer_1" xmlns="http://www.w3.org/2000/svg" xmlns:xlink="http://www.w3.org/1999/xlink" x="0px" y="0px"
	 viewBox="0 0 512 512" style="enable-background:new 0 0 512 512;" xml:space="preserve">
<g>
	<path d="M64,192C64,85.97,149.96,0,255.99,0s192,85.95,192,191.99c0,51.99-21.08,101.76-58.43,137.93
		c-6.5,6.27-11.49,12.8-14.5,19.81l-24.38,56.61c-2.53,5.86-8.3,9.66-14.69,9.66c8.84,0,16,7.16,16,16c0,8.84-7.16,16-16,16
		c8.84,0,16,7.16,16,16c0,8.84-7.16,16-16,16l-7.17,14.3c-5.42,10.84-16.49,17.69-28.61,17.7h-88.45
		c-12.12-0.01-23.19-6.86-28.61-17.7L176,480c-8.84,0-16-7.16-16-16c0-8.84,7.16-16,16-16c-8.84,0-16-7.16-16-16
		c0-8.84,7.16-16,16-16c-6.4,0.01-12.19-3.79-14.72-9.66l-24.35-56.64c-3.49-7.48-8.41-14.2-14.5-19.78
		C85.04,293.79,63.95,244,64,192z M256,32.01c-88.36-0.02-160.01,71.61-160.03,159.97c-0.01,43.34,17.57,84.82,48.7,114.97
		c8.42,8.13,16.45,18.05,21.63,30.11L186.56,384H325.5l20.22-46.94c5.18-12.06,13.22-21.98,21.63-30.11
		c63.48-61.47,65.11-162.76,3.64-226.24C340.85,49.56,299.35,31.99,256,32.01z"/>
</g>
</svg>
